<?xml version="1.0" encoding="UTF-8"?>
<svg width="14px" height="14px" viewBox="0 0 14 14" version="1.1" xmlns="http://www.w3.org/2000/svg" xmlns:xlink="http://www.w3.org/1999/xlink">
    <!-- Generator: Sketch 47.1 (45422) - http://www.bohemiancoding.com/sketch -->
    <title>tooltip</title>
    <desc>Created with Sketch.</desc>
    <defs></defs>
    <g id="Donation" stroke="none" stroke-width="1" fill="none" fill-rule="evenodd">
        <g id="chkout-donation-1-copy4" transform="translate(-776.000000, -705.000000)" fill-rule="nonzero" fill="#333333">
            <g id="iframe" transform="translate(500.000000, 272.000000)">
                <g id="confirm" transform="translate(24.000000, 432.000000)">
                    <g id="Group-8">
                        <path d="M259,1 C255.15,1 252,4.15 252,8 C252,11.85 255.15,15 259,15 C262.85,15 266,11.85 266,8 C266,4.15 262.85,1 259,1 Z M259.84,12.34 L258.09,12.34 L258.09,6.88 L259.84,6.88 L259.84,12.34 Z M258.93,5.76 C258.3,5.76 257.88,5.27 257.88,4.71 C257.88,4.15 258.3,3.66 258.93,3.66 C259.56,3.66 259.98,4.08 259.98,4.71 C260.05,5.27 259.56,5.76 258.93,5.76 Z" id="tooltip"></path>
                    </g>
                </g>
            </g>
        </g>
    </g>
</svg>